<?xml version="1.0" encoding="iso-8859-1"?>
<!-- Generator: Adobe Illustrator 19.0.0, SVG Export Plug-In . SVG Version: 6.00 Build 0)  -->
<svg version="1.1" id="Capa_1" xmlns="http://www.w3.org/2000/svg" xmlns:xlink="http://www.w3.org/1999/xlink" x="0px" y="0px"
	 viewBox="0 0 512 512" style="enable-background:new 0 0 512 512;" xml:space="preserve">
<polygon style="fill:#8EBAC5;" points="301,166 271,166 271,31 452,31 452,106 422,106 422,61 301,61 "/>
<polygon style="fill:#A8D3D8;" points="150,226 120,226 120,121 45,121 45,91 150,91 "/>
<rect x="211" y="151" style="fill:#444444;" width="151" height="75"/>
<rect x="256" y="151" style="fill:#292929;" width="106" height="75"/>
<polygon style="fill:#5A5A5A;" points="450.5,279.399 61.5,279.399 95.7,211 416.3,211 "/>
<polygon style="fill:#444444;" points="450.5,279.399 256,279.399 256,211 416.3,211 "/>
<rect x="30" y="271" style="fill:#FF9F00;" width="452" height="150"/>
<rect x="256" y="271" style="fill:#FF7816;" width="226" height="150"/>
<path style="fill:#444444;" d="M468.802,167.831l-21.182-21.24c2.827-2.813,4.38-6.577,4.38-10.591s-1.553-7.778-4.38-10.591
	c-5.684-5.713-15.586-5.684-21.211-0.029C423.553,128.222,422,131.986,422,136s1.553,7.778,4.38,10.591l-21.182,21.24
	C396.688,159.35,392,148.041,392,136s4.688-23.35,13.198-31.831c16.904-16.963,46.67-16.992,63.633,0.029
	C477.313,112.65,482,123.959,482,136S477.313,159.35,468.802,167.831z"/>
<g>
	<rect x="30" y="31" style="fill:#5A5A5A;" width="30" height="150"/>
	<path style="fill:#5A5A5A;" d="M75,331c-41.4,0-75,33.6-75,75s33.6,75,75,75s75-33.6,75-75S116.4,331,75,331z"/>
</g>
<path style="fill:#444444;" d="M150,406c0,41.4-33.6,75-75,75V331C116.4,331,150,364.6,150,406z"/>
<path style="fill:#DEECF1;" d="M75,361c-24.901,0-45,20.099-45,45c0,24.899,20.099,45,45,45s45-20.101,45-45
	C120,381.099,99.901,361,75,361z"/>
<path style="fill:#C6E2E7;" d="M120,406c0,24.899-20.099,45-45,45v-90C99.901,361,120,381.099,120,406z"/>
<rect x="60" y="391" style="fill:#5A5A5A;" width="30" height="30"/>
<rect x="75" y="391" style="fill:#444444;" width="15" height="30"/>
<path style="fill:#5A5A5A;" d="M256,331c-41.4,0-75,33.6-75,75s33.6,75,75,75s75-33.6,75-75S297.4,331,256,331z"/>
<path style="fill:#444444;" d="M331,406c0,41.4-33.6,75-75,75V331C297.4,331,331,364.6,331,406z"/>
<path style="fill:#DEECF1;" d="M256,361c-24.901,0-45,20.099-45,45c0,24.899,20.099,45,45,45s45-20.101,45-45
	C301,381.099,280.901,361,256,361z"/>
<path style="fill:#C6E2E7;" d="M301,406c0,24.899-20.099,45-45,45v-90C280.901,361,301,381.099,301,406z"/>
<rect x="241" y="391" style="fill:#5A5A5A;" width="30" height="30"/>
<rect x="256" y="391" style="fill:#444444;" width="15" height="30"/>
<path style="fill:#5A5A5A;" d="M437,331c-41.4,0-75,33.6-75,75s33.6,75,75,75s75-33.6,75-75S478.4,331,437,331z"/>
<path style="fill:#444444;" d="M512,406c0,41.4-33.6,75-75,75V331C478.4,331,512,364.6,512,406z"/>
<path style="fill:#DEECF1;" d="M437,361c-24.901,0-45,20.099-45,45c0,24.899,20.099,45,45,45s45-20.101,45-45
	C482,381.099,461.901,361,437,361z"/>
<path style="fill:#C6E2E7;" d="M482,406c0,24.899-20.099,45-45,45v-90C461.901,361,482,381.099,482,406z"/>
<rect x="422" y="391" style="fill:#5A5A5A;" width="30" height="30"/>
<rect x="437" y="391" style="fill:#444444;" width="15" height="30"/>
<g>
</g>
<g>
</g>
<g>
</g>
<g>
</g>
<g>
</g>
<g>
</g>
<g>
</g>
<g>
</g>
<g>
</g>
<g>
</g>
<g>
</g>
<g>
</g>
<g>
</g>
<g>
</g>
<g>
</g>
</svg>
